<?xml version="1.0" standalone="no"?>
<!DOCTYPE svg PUBLIC "-//W3C//DTD SVG 20010904//EN"
 "http://www.w3.org/TR/2001/REC-SVG-20010904/DTD/svg10.dtd">
<svg version="1.0" xmlns="http://www.w3.org/2000/svg"
 width="700.000000pt" height="700.000000pt" viewBox="0 0 700.000000 700.000000"
 preserveAspectRatio="xMidYMid meet">
<metadata>
Created by potrace 1.11, written by Peter Selinger 2001-2013
</metadata>
<g transform="translate(0.000000,700.000000) scale(0.100000,-0.100000)"
fill="#000000" stroke="none">
<path d="M2675 5701 c-319 -57 -640 -195 -810 -350 -72 -65 -155 -161 -191
-219 -58 -93 -102 -344 -85 -482 11 -87 54 -196 121 -304 42 -68 81 -114 172
-199 65 -61 133 -120 151 -131 17 -10 43 -26 57 -35 43 -27 190 -79 295 -105
192 -47 394 -58 575 -32 155 23 415 94 520 143 30 14 70 32 88 40 60 25 206
135 295 222 126 122 170 225 167 386 -1 93 -14 143 -65 252 -98 206 -264 386
-471 508 -102 61 -263 139 -339 164 -47 16 -54 20 -30 21 29 0 28 2 -45 75
l-74 75 -91 -1 c-49 -1 -157 -13 -240 -28z m551 -277 c92 -19 207 -62 283
-106 31 -18 83 -46 115 -63 86 -44 129 -91 180 -198 55 -114 76 -190 76 -274
0 -198 -93 -349 -314 -506 -122 -87 -243 -147 -379 -188 -414 -126 -623 -138
-962 -59 -100 24 -250 81 -307 116 -48 30 -93 97 -137 203 l-36 86 1 150 c1
251 44 373 185 528 l62 68 49 -48 c40 -39 50 -45 58 -33 5 8 10 19 10 23 0 22
121 132 172 158 110 55 336 118 518 143 136 19 335 19 426 0z"/>
<path d="M5242 3586 c-7 -15 -12 -32 -13 -39 0 -7 -37 -30 -82 -52 -125 -61
-225 -135 -340 -250 -160 -160 -283 -344 -323 -480 -26 -89 -41 -231 -32 -305
9 -81 46 -208 68 -235 10 -11 36 -49 60 -85 23 -36 106 -129 184 -208 150
-152 206 -190 339 -233 196 -63 508 -66 837 -9 282 48 488 149 661 322 64 63
94 103 121 159 36 72 36 76 34 174 -4 113 -42 293 -83 395 -57 139 -118 223
-287 391 -186 186 -285 257 -471 336 -66 28 -132 54 -146 58 -15 4 -43 24 -63
44 -37 38 -37 38 -89 28 -29 -5 -79 -6 -112 -3 -33 4 -103 10 -155 13 l-96 5
-12 -26z m574 -182 c211 -61 406 -154 538 -258 125 -98 248 -422 249 -656 0
-128 -28 -192 -138 -309 -228 -241 -550 -357 -1045 -377 -264 -10 -447 22
-593 103 -60 33 -74 47 -122 120 -81 127 -100 190 -99 348 0 156 22 247 89
372 112 212 376 482 564 578 l33 17 44 -43 44 -43 0 61 0 62 73 15 c191 42
249 44 363 10z"/>
<path d="M1886 2599 c-120 -13 -264 -89 -348 -185 -16 -18 -52 -47 -81 -65
-28 -18 -56 -39 -60 -46 -5 -8 -30 -40 -57 -72 -48 -57 -48 -58 -29 -77 19
-19 19 -21 -16 -93 -81 -169 -112 -319 -101 -490 13 -204 70 -306 292 -527
246 -245 301 -268 644 -266 160 1 232 6 330 23 311 54 607 176 800 333 124
100 244 264 273 373 16 58 16 71 2 165 -21 140 -81 291 -151 378 -67 84 -261
274 -340 333 -103 78 -191 113 -354 141 -94 17 -181 26 -250 26 -105 0 -107 0
-135 30 l-29 30 -155 -1 c-86 -1 -191 -5 -235 -10z m969 -229 c162 -28 281
-83 369 -173 54 -54 67 -75 103 -168 57 -145 75 -281 50 -375 -28 -108 -135
-255 -264 -363 -181 -151 -480 -279 -774 -332 -166 -30 -504 -38 -620 -15
-137 28 -219 80 -283 180 -85 133 -114 308 -82 493 28 156 71 266 161 412 111
180 166 230 296 269 82 25 358 80 464 92 133 15 443 4 580 -20z"/>
</g>
</svg>
